<svg xmlns="http://www.w3.org/2000/svg" width="100%" viewBox="0 0 60 60" fill="none"><path d="M27.6252 6.1248C29.3502 4.6498 32.1752 4.6498 33.9252 6.1248L37.8752 9.52507C38.6252 10.1751 40.0252 10.7 41.0252 10.7H45.2752C47.9252 10.7 50.1002 12.8748 50.1002 15.5248V19.775C50.1002 20.75 50.6252 22.175 51.2752 22.925L54.6752 26.8749C56.1502 28.5999 56.1502 31.425 54.6752 33.175L51.2752 37.1249C50.6252 37.8749 50.1002 39.2749 50.1002 40.2749V44.5251C50.1002 47.1751 47.9252 49.3499 45.2752 49.3499H41.0252C40.0502 49.3499 38.6252 49.8748 37.8752 50.5248L33.9252 53.9248C32.2002 55.3998 29.3752 55.3998 27.6252 53.9248L23.6752 50.5248C22.9252 49.8748 21.5252 49.3499 20.5252 49.3499H16.2002C13.5502 49.3499 11.3752 47.1751 11.3752 44.5251V40.2499C11.3752 39.2749 10.8502 37.8749 10.2252 37.1249L6.8502 33.15C5.4002 31.425 5.4002 28.625 6.8502 26.9L10.2252 22.925C10.8502 22.175 11.3752 20.775 11.3752 19.8V15.5248C11.3752 12.8748 13.5502 10.7 16.2002 10.7H20.5252C21.5002 10.7 22.9252 10.1751 23.6752 9.52507L27.6252 6.1248Z" stroke="white" stroke-width="1.5" stroke-linecap="round" stroke-linejoin="round"></path><path d="M24.4995 36.2499L29.0995 39.8498C29.5745 40.3248 30.6245 40.5499 31.3245 40.5499H35.7495C37.1495 40.5499 38.6745 39.4999 39.0245 38.0999L41.8245 29.5498C42.3995 27.9248 41.3495 26.4999 39.5995 26.4999H34.9245C34.2245 26.4999 33.6495 25.9251 33.7495 25.1001L34.3245 21.3501C34.5495 20.3001 33.8495 19.125 32.7995 18.775C31.8745 18.425 30.6995 18.8999 30.2245 19.5999L24.4995 26.2499" fill="#FF6314"></path><path d="M19.5 37.0497V25.5999C19.5 23.9499 20.2 23.3748 21.85 23.3748H23.025C24.65 23.3748 25.375 23.9499 25.375 25.5999V37.0497C25.375 38.6747 24.675 39.2748 23.025 39.2748H21.85C20.2 39.2748 19.5 38.6997 19.5 37.0497Z" fill="#FF6314"></path></svg>