<svg width="80" height="80" viewBox="0 0 80 80" fill="none" xmlns="http://www.w3.org/2000/svg">
<path d="M60.2667 35.9667V49.3C60.2667 50.1667 60.2333 51 60.1333 51.8C59.3667 60.8 54.0667 65.2666 44.3 65.2666H42.9667C42.1334 65.2666 41.3333 65.6666 40.8333 66.3333L36.8334 71.6667C35.0667 74.0333 32.2 74.0333 30.4333 71.6667L26.4333 66.3333C26 65.7666 25.0333 65.2666 24.3 65.2666H22.9667C12.3334 65.2666 7 62.6334 7 49.3V35.9667C7 26.2 11.5 20.9 20.4667 20.1334C21.2667 20.0334 22.1 20 22.9667 20H44.3C54.9333 20 60.2667 25.3334 60.2667 35.9667Z" stroke="white" stroke-width="2" stroke-miterlimit="10" stroke-linecap="round" stroke-linejoin="round"/>
<path d="M73.2659 22.6333V35.9666C73.2659 42.6333 71.1992 47.1666 67.0659 49.6666C66.0659 50.2666 64.8992 49.4666 64.8992 48.3L64.9325 35.9666C64.9325 22.6333 57.2992 15 43.9659 15L23.6659 15.0333C22.4992 15.0333 21.6992 13.8666 22.2992 12.8666C24.7992 8.73329 29.3325 6.66663 35.9659 6.66663H57.2992C67.9325 6.66663 73.2659 12 73.2659 22.6333Z" fill="#FF6314"/>
<path d="M36.5998 34.8C36.4498 34.8 36.2998 34.8 36.0998 34.8C35.4498 32.7 33.4998 31.25 31.2498 31.25C28.4498 31.25 26.1498 33.55 26.1498 36.45C26.1498 37.35 26.3998 38.2 26.7998 39C25.2498 40.1 24.2998 41.9 24.2998 43.9C24.2998 47.2 26.9498 49.85 30.1998 49.85C30.7498 49.85 31.1498 49.85 31.4998 49.75V53.8C31.4998 54.35 31.9498 54.8 32.4998 54.8C33.0498 54.8 33.4998 54.35 33.4998 53.8V49.6C34.3498 49.8 35.3498 49.85 36.3498 49.85C39.1498 49.85 41.4498 47.55 41.4498 44.65C41.4498 43.95 41.2998 43.25 41.0498 42.6C41.4998 41.8 41.7498 40.9 41.7498 39.95C41.6998 37.1 39.3998 34.8 36.5998 34.8ZM38.9998 43C39.2998 43.5 39.4498 44.05 39.4498 44.6C39.4498 46.4 38.0498 47.8 36.2998 47.8C34.6498 47.8 33.8498 47.65 33.4498 47.5V45.6C34.6998 45.1 37.1498 43.65 37.7498 40.4C37.8498 39.85 37.4998 39.35 36.9498 39.25C36.3998 39.15 35.8998 39.5 35.7998 40.05C35.4498 41.85 34.3498 42.85 33.3998 43.4V38.15C33.3998 37.6 32.9498 37.15 32.3998 37.15C31.8498 37.15 31.3998 37.6 31.3998 38.15V42.3C31.2498 42.2 31.0498 42.05 30.9498 41.8C30.7498 41.3 30.1498 41.05 29.6498 41.25C29.1498 41.45 28.8998 42.05 29.0998 42.55C29.5998 43.7 30.4998 44.2 31.3498 44.35V47.55C30.9998 47.8 30.8498 47.8 30.0498 47.8C27.8998 47.8 26.1498 46 26.1498 43.8C26.1498 42.2 27.0998 40.75 28.4998 40.1C28.7998 39.95 28.9998 39.7 29.0498 39.4C29.0998 39.1 29.0498 38.75 28.7998 38.55C28.2498 37.95 27.9498 37.15 27.9498 36.35C27.9498 34.55 29.3498 33.15 31.0998 33.15C32.6998 33.15 34.0498 34.4 34.2498 36C34.2998 36.3 34.4498 36.55 34.6998 36.7C34.9498 36.85 35.2498 36.9 35.5498 36.8C35.8498 36.7 36.1498 36.65 36.4998 36.65C38.2498 36.65 39.6498 38.1 39.6498 39.85C39.6498 40.55 39.3998 41.25 38.9998 41.8C38.8498 42.25 38.7998 42.7 38.9998 43Z" fill="white"/>
</svg>
