<svg width="80" height="80" viewBox="0 0 80 80" fill="none" xmlns="http://www.w3.org/2000/svg">
<path d="M33.6333 60.2667C48.3425 60.2667 60.2667 48.3425 60.2667 33.6333C60.2667 18.9241 48.3425 7 33.6333 7C18.9241 7 7 18.9241 7 33.6333C7 48.3425 18.9241 60.2667 33.6333 60.2667Z" stroke="white" stroke-width="2" stroke-linecap="round" stroke-linejoin="round"/>
<path d="M73.0669 55.8336C71.9669 64.7003 64.7002 71.967 55.8335 73.067C50.4669 73.7337 45.4669 72.267 41.5669 69.4003C39.3335 67.767 39.8669 64.3003 42.5335 63.5003C52.5669 60.467 60.4669 52.5336 63.5335 42.5003C64.3335 39.867 67.8002 39.3337 69.4335 41.5337C72.2669 45.467 73.7335 50.467 73.0669 55.8336Z" fill="#FF6314"/>
<path d="M45.9673 30.8174L45.3788 30.1943L43.3135 24.627C42.9615 23.6866 42.0615 23.0635 41.0577 23.0577H26.3058C25.3019 23.0577 24.4019 23.6866 24.05 24.627L22.0135 30.125L21.1654 30.9097C20.4269 31.5385 20 32.4616 20 33.4308V41.5424C20.0058 42.8693 21.0846 43.9424 22.4115 43.9424H23.9346C25.2615 43.9424 26.3404 42.8693 26.3462 41.5424V40.3654H40.6538V41.5424C40.6596 42.8693 41.7385 43.9424 43.0654 43.9424H44.5885C45.9154 43.9424 46.9942 42.8693 47 41.5424V33.2174C46.9942 32.3116 46.625 31.4462 45.9673 30.8174ZM25.1346 25.0193C25.3192 24.5289 25.7865 24.2116 26.3058 24.2116H41.0635C41.5827 24.2116 42.05 24.5347 42.2346 25.0193L44.0346 29.8654H42.6904C42.3731 27.702 40.3596 26.2077 38.1962 26.5308C36.4712 26.7847 35.1154 28.1404 34.8615 29.8654H23.3346L25.1346 25.0193ZM41.5135 29.8654H36.0269C36.3442 28.3481 37.8327 27.3789 39.35 27.6962C40.4346 27.927 41.2827 28.775 41.5135 29.8654ZM25.1923 41.5424C25.1865 42.2347 24.6269 42.7885 23.9346 42.7885H22.4115C21.7192 42.7885 21.1596 42.2347 21.1538 41.5424V40.0308C21.5 40.2558 21.9558 40.3654 22.4115 40.3654H25.1923V41.5424ZM45.8462 41.5424C45.8404 42.2347 45.2808 42.7885 44.5885 42.7885H43.0654C42.3731 42.7885 41.8135 42.2289 41.8077 41.5424V40.3654H44.5885C45.0442 40.3654 45.5 40.2558 45.8462 40.0308V41.5424ZM44.5885 39.2116H22.4115C21.725 39.2174 21.1596 38.6693 21.1538 37.977V33.4308C21.1538 32.7962 21.4365 32.1904 21.9212 31.7808C21.9269 31.775 21.9385 31.7635 21.9442 31.7577L22.7288 31.0193H44.5769L45.1308 31.6135C45.1365 31.625 45.1538 31.6308 45.1596 31.6424C45.5923 32.052 45.8404 32.6231 45.8404 33.2174V37.977H45.8462C45.8404 38.6635 45.275 39.2174 44.5885 39.2116Z" fill="white"/>
<path d="M27.6153 33.3269H23.2883C22.971 33.3269 22.7114 33.5865 22.7114 33.9038V36.9038C22.7114 37.2211 22.971 37.4808 23.2883 37.4808H27.6153C27.9326 37.4808 28.1922 37.2211 28.1922 36.9038V33.9038C28.1922 33.5865 27.9326 33.3269 27.6153 33.3269ZM27.0383 36.3269H23.8653V34.4808H27.0383V36.3269Z" fill="white"/>
<path d="M43.7115 33.3269H39.3845C39.0672 33.3269 38.8076 33.5865 38.8076 33.9038V36.9038C38.8076 37.2211 39.0672 37.4808 39.3845 37.4808H43.7115C44.0288 37.4808 44.2884 37.2211 44.2884 36.9038V33.9038C44.2884 33.5865 44.0288 33.3269 43.7115 33.3269ZM43.1345 36.3269H39.9615V34.4808H43.1345V36.3269Z" fill="white"/>
<path d="M36.2867 35.75H30.7136C30.3963 35.75 30.1367 36.0096 30.1367 36.3269C30.1367 36.6442 30.3963 36.9038 30.7136 36.9038H36.2867C36.604 36.9038 36.8636 36.6442 36.8636 36.3269C36.8636 36.0096 36.604 35.75 36.2867 35.75Z" fill="white"/>
<path d="M36.2867 33.9615H30.7136C30.3963 33.9615 30.1367 34.2212 30.1367 34.5385C30.1367 34.8558 30.3963 35.1154 30.7136 35.1154H36.2867C36.604 35.1154 36.8636 34.8558 36.8636 34.5385C36.8636 34.2212 36.604 33.9615 36.2867 33.9615Z" fill="white"/>
</svg>
