<svg width="80" height="80" viewBox="0 0 80 80" fill="none" xmlns="http://www.w3.org/2000/svg">
<path d="M35.8336 8.16641C38.1336 6.19974 41.9002 6.19974 44.2335 8.16641L49.5003 12.7001C50.5003 13.5668 52.3669 14.2667 53.7002 14.2667H59.3669C62.9002 14.2667 65.8002 17.1664 65.8002 20.6998V26.3667C65.8002 27.6667 66.5002 29.5667 67.3669 30.5667L71.9003 35.8332C73.8669 38.1332 73.8669 41.9 71.9003 44.2333L67.3669 49.4998C66.5002 50.4998 65.8002 52.3665 65.8002 53.6999V59.3668C65.8002 62.9001 62.9002 65.7999 59.3669 65.7999H53.7002C52.4002 65.7999 50.5003 66.4998 49.5003 67.3664L44.2335 71.8997C41.9335 73.8664 38.1669 73.8664 35.8336 71.8997L30.567 67.3664C29.567 66.4998 27.7003 65.7999 26.3669 65.7999H20.6002C17.0669 65.7999 14.1669 62.9001 14.1669 59.3668V53.6665C14.1669 52.3665 13.4669 50.4998 12.6336 49.4998L8.13359 44.1999C6.20026 41.8999 6.20026 38.1666 8.13359 35.8666L12.6336 30.5667C13.4669 29.5667 14.1669 27.7001 14.1669 26.4001V20.6998C14.1669 17.1664 17.0669 14.2667 20.6002 14.2667H26.3669C27.6669 14.2667 29.567 13.5668 30.567 12.7001L35.8336 8.16641Z" stroke="white" stroke-width="2" stroke-linecap="round" stroke-linejoin="round"/>
<g clip-path="url(#clip0_132_949)">
<path d="M39.9985 42.8291C42.1149 42.8291 43.8306 41.1134 43.8306 38.9971C43.8306 36.8807 42.1149 35.165 39.9985 35.165C37.8822 35.165 36.1665 36.8807 36.1665 38.9971C36.1665 41.1134 37.8822 42.8291 39.9985 42.8291Z" fill="#FF6314"/>
<path d="M54.5485 37.7971C54.1343 36.6879 53.1839 35.7615 52.0179 35.3414C49.8212 34.5428 47.2483 34.759 44.5103 35.9033C45.1145 36.782 45.4481 37.8184 45.47 38.8846C45.4919 39.9508 45.201 41 44.6333 41.9027C45.6071 42.2476 46.4601 42.8673 47.089 43.6868C47.7179 44.5064 48.0959 45.4906 48.1771 46.5205C48.1771 46.5205 48.1894 46.65 48.1864 46.9307C48.1838 47.2666 48.2824 47.5955 48.4694 47.8746C48.6938 48.2192 49.0436 48.4628 49.4446 48.5539C49.8455 48.645 50.2662 48.5764 50.6175 48.3627L50.6485 48.3439C53.5835 46.2135 56.0438 41.6455 54.5485 37.7971Z" fill="#FF6314"/>
<path d="M34.526 39.0001C34.5248 37.9734 34.814 36.9673 35.3604 36.098C34.388 35.7524 33.5364 35.1327 32.9086 34.3137C32.2808 33.4946 31.9036 32.5113 31.8225 31.4825C31.8225 31.4825 31.8102 31.353 31.8131 31.0724C31.8158 30.7364 31.7171 30.4075 31.5301 30.1284C31.3057 29.7839 30.9559 29.5402 30.555 29.4491C30.154 29.358 29.7333 29.4266 29.382 29.6403L29.351 29.6591C26.416 31.7878 23.9557 36.3558 25.451 40.206C25.8652 41.3151 26.8156 42.2409 27.9817 42.6616C30.1783 43.4609 32.7518 43.2441 35.4904 42.0991C34.861 41.1884 34.5246 40.1072 34.526 39.0001Z" fill="#FF6314"/>
<path d="M49.359 28.3823L49.3409 28.3512C47.2116 25.4163 42.6442 22.9559 38.794 24.4512C37.6848 24.8655 36.759 25.8159 36.3389 26.9819C35.5397 29.178 35.7565 31.7503 36.8997 34.4878C37.7784 33.8827 38.8152 33.5482 39.8819 33.5257C40.9486 33.5032 41.9985 33.7937 42.902 34.3612C43.2476 33.3886 43.8674 32.537 44.6865 31.909C45.5057 31.2811 46.4891 30.9038 47.518 30.8227C47.518 30.8227 47.6475 30.8104 47.9282 30.8133C48.2641 30.8159 48.593 30.7173 48.8721 30.5303C49.2165 30.3057 49.4599 29.9559 49.5508 29.555C49.6417 29.154 49.5729 28.7334 49.359 28.3823Z" fill="#FF6314"/>
<path d="M40 44.4698C38.9727 44.471 37.9661 44.1813 37.0967 43.6343C36.7517 44.6079 36.132 45.4608 35.3124 46.0896C34.4929 46.7184 33.5087 47.0963 32.4789 47.1774C32.4789 47.1774 32.3494 47.1897 32.0687 47.1868C31.733 47.1841 31.4042 47.2828 31.1254 47.4698C30.7808 47.6942 30.5372 48.044 30.4461 48.4449C30.355 48.8459 30.4235 49.2666 30.6373 49.6178L30.6555 49.6489C32.7848 52.5839 37.3521 55.0442 41.2023 53.5489C42.3115 53.1346 43.2373 52.1843 43.658 51.0182C44.4566 48.821 44.2398 46.2469 43.0949 43.5077C42.1849 44.1352 41.1054 44.4708 40 44.4698Z" fill="#FF6314"/>
</g>
<defs>
<clipPath id="clip0_132_949">
<rect width="30" height="30" fill="white" transform="translate(25 24)"/>
</clipPath>
</defs>
</svg>
