<svg width="80" height="80" viewBox="0 0 80 80" fill="none" xmlns="http://www.w3.org/2000/svg">
<g clip-path="url(#clip0_132_926)">
<path d="M53.3331 35.5093C52.5971 35.5093 51.9998 34.912 51.9998 34.176C51.9998 30.436 50.5438 26.9213 47.8998 24.276C47.3785 23.7546 47.3785 22.912 47.8998 22.3906C48.4211 21.8693 49.2638 21.8693 49.7851 22.3906C52.9331 25.5386 54.6665 29.724 54.6665 34.176C54.6665 34.912 54.0691 35.5093 53.3331 35.5093Z" fill="#FF6314"/>
<path d="M26.6668 35.5093C25.9308 35.5093 25.3335 34.912 25.3335 34.176C25.3335 29.724 27.0668 25.5386 30.2148 22.3906C30.7362 21.8693 31.5788 21.8693 32.1002 22.3906C32.6215 22.912 32.6215 23.7546 32.1002 24.276C29.4562 26.92 28.0002 30.436 28.0002 34.176C28.0002 34.912 27.4028 35.5093 26.6668 35.5093Z" fill="#FF6314"/>
<path d="M52.5052 43.5507C50.4892 41.8467 49.3332 39.356 49.3332 36.7173V33C49.3332 28.308 45.8478 24.424 41.3332 23.7733V22.3333C41.3332 21.596 40.7358 21 39.9998 21C39.2638 21 38.6665 21.596 38.6665 22.3333V23.7733C34.1505 24.424 30.6665 28.308 30.6665 33V36.7173C30.6665 39.356 29.5105 41.8467 27.4825 43.5613C26.9638 44.0053 26.6665 44.6507 26.6665 45.3333C26.6665 46.62 27.7132 47.6667 28.9998 47.6667H50.9998C52.2865 47.6667 53.3332 46.62 53.3332 45.3333C53.3332 44.6507 53.0358 44.0053 52.5052 43.5507Z" fill="#FF6314"/>
<path d="M39.9997 53C42.4144 53 44.4344 51.2787 44.8984 49H35.1011C35.5651 51.2787 37.5851 53 39.9997 53Z" fill="#FF6314"/>
</g>
<path d="M60 63.1666H57.4667C54.8 63.1666 52.2666 64.1999 50.4 66.0666L44.7 71.7001C42.1 74.2668 37.8667 74.2668 35.2667 71.7001L29.5666 66.0666C27.7 64.1999 25.1333 63.1666 22.5 63.1666H20C14.4667 63.1666 10 58.7334 10 53.2667V16.8999C10 11.4332 14.4667 7 20 7H60C65.5333 7 70 11.4332 70 16.8999V53.2667C70 58.7 65.5333 63.1666 60 63.1666Z" stroke="white" stroke-width="2" stroke-miterlimit="10" stroke-linecap="round" stroke-linejoin="round"/>
<defs>
<clipPath id="clip0_132_926">
<rect width="32" height="32" fill="white" transform="translate(24 21)"/>
</clipPath>
</defs>
</svg>
