<svg width="80" height="80" viewBox="0 0 80 80" fill="none" xmlns="http://www.w3.org/2000/svg">
<g clip-path="url(#clip0_132_911)">
<path d="M44.9369 45.2445V45.2945H44.9869H46.5619C47.0155 45.2945 47.3869 45.6659 47.3869 46.1195C47.3869 46.5734 47.0208 46.9445 46.5619 46.9445H21.4385C20.9848 46.9445 20.6135 46.5732 20.6135 46.1195C20.6135 45.6657 20.9796 45.2945 21.4385 45.2945H22.9971H23.0471V45.2445V28.0508C23.0471 27.7825 23.176 27.5299 23.3976 27.3754L23.3976 27.3753L35.0843 19.1996L35.0844 19.1995C35.2236 19.1016 35.3885 19.05 35.5588 19.05C36.0124 19.05 36.3838 19.4214 36.3838 19.875V24.5836V24.6091L36.4045 24.6241L44.5964 30.5575C44.8078 30.7122 44.9369 30.9652 44.9369 31.2281V45.2445ZM24.7184 28.4692L24.6971 28.4841V28.5102V45.2445V45.2945H24.7471H34.6783H34.7283V45.2445V21.5594V21.4634L34.6496 21.5184L24.7184 28.4692ZM36.4631 26.7087L36.3838 26.6513V26.7492V45.2445V45.25V45.3H36.4338H43.2369H43.2869V45.25V31.6766V31.651L43.2662 31.6361L36.4631 26.7087Z" fill="white" stroke="#0D0E13" stroke-width="0.1"/>
<path d="M39.157 31.7047H40.5078C40.688 31.7047 40.8297 31.8463 40.8297 32.0265V33.3773C40.8297 33.5575 40.688 33.6992 40.5078 33.6992H39.157C38.9768 33.6992 38.8352 33.5575 38.8352 33.3773V32.0265C38.8352 31.8468 38.9818 31.7047 39.157 31.7047Z" fill="white" stroke="#0D0E13" stroke-width="0.1"/>
<path d="M39.157 35.0898H40.5078C40.688 35.0898 40.8297 35.2315 40.8297 35.4117V36.7625C40.8297 36.9426 40.688 37.0843 40.5078 37.0843H39.157C38.9768 37.0843 38.8352 36.9426 38.8352 36.7625V35.4117C38.8352 35.2369 38.9823 35.0898 39.157 35.0898Z" fill="white" stroke="#0D0E13" stroke-width="0.1"/>
<path d="M39.157 38.4804H40.5078C40.688 38.4804 40.8297 38.6221 40.8297 38.8023V40.1531C40.8297 40.3333 40.688 40.475 40.5078 40.475H39.157C38.9768 40.475 38.8352 40.3333 38.8352 40.1531V38.8023C38.8352 38.6226 38.9818 38.4804 39.157 38.4804Z" fill="white" stroke="#0D0E13" stroke-width="0.1"/>
<path d="M39.157 41.8657H40.5078C40.688 41.8657 40.8297 42.0073 40.8297 42.1875V43.5383C40.8297 43.7185 40.688 43.8602 40.5078 43.8602H39.157C38.9768 43.8602 38.8352 43.7185 38.8352 43.5383V42.1875C38.8352 42.0128 38.9823 41.8657 39.157 41.8657Z" fill="white" stroke="#0D0E13" stroke-width="0.1"/>
<path d="M31.0525 41.8657H32.4033C32.5835 41.8657 32.7252 42.0074 32.7252 42.1875V43.5383C32.7252 43.7185 32.5835 43.8602 32.4033 43.8602H31.0525C30.8723 43.8602 30.7307 43.7185 30.7307 43.5383V42.1875C30.7307 42.0128 30.8778 41.8657 31.0525 41.8657Z" fill="white" stroke="#0D0E13" stroke-width="0.1"/>
<path d="M27.0223 41.8657H28.373C28.5532 41.8657 28.6949 42.0073 28.6949 42.1875V43.5383C28.6949 43.7185 28.5532 43.8602 28.373 43.8602H27.0223C26.8421 43.8602 26.7004 43.7185 26.7004 43.5383V42.1875C26.7004 42.0128 26.8475 41.8657 27.0223 41.8657Z" fill="white" stroke="#0D0E13" stroke-width="0.1"/>
<path d="M31.0525 38.4804H32.4033C32.5835 38.4804 32.7252 38.6221 32.7252 38.8023V40.1531C32.7252 40.3333 32.5835 40.475 32.4033 40.475H31.0525C30.8723 40.475 30.7307 40.3333 30.7307 40.1531V38.8023C30.7307 38.6226 30.8773 38.4804 31.0525 38.4804Z" fill="white" stroke="#0D0E13" stroke-width="0.1"/>
<path d="M27.0223 38.4804H28.373C28.5532 38.4804 28.6949 38.6221 28.6949 38.8023V40.1531C28.6949 40.3333 28.5532 40.475 28.373 40.475H27.0223C26.8421 40.475 26.7004 40.3333 26.7004 40.1531V38.8023C26.7004 38.6226 26.8471 38.4804 27.0223 38.4804Z" fill="white" stroke="#0D0E13" stroke-width="0.1"/>
<path d="M31.0525 35.0898H32.4033C32.5835 35.0898 32.7252 35.2315 32.7252 35.4117V36.7625C32.7252 36.9426 32.5835 37.0843 32.4033 37.0843H31.0525C30.8723 37.0843 30.7307 36.9426 30.7307 36.7625V35.4117C30.7307 35.2369 30.8778 35.0898 31.0525 35.0898Z" fill="white" stroke="#0D0E13" stroke-width="0.1"/>
<path d="M27.0223 35.0898H28.373C28.5532 35.0898 28.6949 35.2315 28.6949 35.4117V36.7625C28.6949 36.9426 28.5532 37.0843 28.373 37.0843H27.0223C26.8421 37.0843 26.7004 36.9426 26.7004 36.7625V35.4117C26.7004 35.2369 26.8475 35.0898 27.0223 35.0898Z" fill="white" stroke="#0D0E13" stroke-width="0.1"/>
<path d="M31.0525 31.7047H32.4033C32.5835 31.7047 32.7252 31.8463 32.7252 32.0265V33.3773C32.7252 33.5575 32.5835 33.6992 32.4033 33.6992H31.0525C30.8723 33.6992 30.7307 33.5575 30.7307 33.3773V32.0265C30.7307 31.8468 30.8773 31.7047 31.0525 31.7047Z" fill="white" stroke="#0D0E13" stroke-width="0.1"/>
<path d="M27.0223 31.7047H28.373C28.5532 31.7047 28.6949 31.8463 28.6949 32.0265V33.3773C28.6949 33.5575 28.5532 33.6992 28.373 33.6992H27.0223C26.8421 33.6992 26.7004 33.5575 26.7004 33.3773V32.0265C26.7004 31.8468 26.8471 31.7047 27.0223 31.7047Z" fill="white" stroke="#0D0E13" stroke-width="0.1"/>
<path d="M31.0525 28.314H32.4033C32.5835 28.314 32.7252 28.4557 32.7252 28.6359V29.9867C32.7252 30.1669 32.5835 30.3086 32.4033 30.3086H31.0525C30.8723 30.3086 30.7307 30.1669 30.7307 29.9867V28.6359C30.7307 28.4612 30.8778 28.314 31.0525 28.314Z" fill="white" stroke="#0D0E13" stroke-width="0.1"/>
<path d="M27.0223 28.314H28.373C28.5532 28.314 28.6949 28.4557 28.6949 28.6359V29.9867C28.6949 30.1669 28.5532 30.3086 28.373 30.3086H27.0223C26.8421 30.3086 26.7004 30.1669 26.7004 29.9867V28.6359C26.7004 28.4612 26.8475 28.314 27.0223 28.314Z" fill="white" stroke="#0D0E13" stroke-width="0.1"/>
<path d="M31.0525 24.9289H32.4033C32.5835 24.9289 32.7252 25.0706 32.7252 25.2508V26.6016C32.7252 26.7818 32.5835 26.9234 32.4033 26.9234H31.0525C30.8723 26.9234 30.7307 26.7818 30.7307 26.6016V25.2508C30.7307 25.0711 30.8773 24.9289 31.0525 24.9289Z" fill="white" stroke="#0D0E13" stroke-width="0.1"/>
</g>
<path d="M34 61C48.9117 61 61 48.9117 61 34C61 19.0883 48.9117 7 34 7C19.0883 7 7 19.0883 7 34C7 48.9117 19.0883 61 34 61Z" stroke="white" stroke-width="2" stroke-linecap="round" stroke-linejoin="round"/>
<path d="M73.0669 55.8336C71.9669 64.7003 64.7002 71.967 55.8335 73.067C50.4669 73.7337 45.4669 72.267 41.5669 69.4003C39.3335 67.767 39.8669 64.3003 42.5335 63.5003C52.5669 60.467 60.4669 52.5336 63.5335 42.5003C64.3335 39.867 67.8002 39.3337 69.4335 41.5337C72.2669 45.467 73.7335 50.467 73.0669 55.8336Z" fill="#FF6314"/>
<defs>
<clipPath id="clip0_132_911">
<rect width="28" height="28" fill="white" transform="translate(20 19)"/>
</clipPath>
</defs>
</svg>
