<svg xmlns="http://www.w3.org/2000/svg" width="100%" viewBox="0 0 60 60" fill="none"><path d="M45.7497 17.9001C45.5997 17.8751 45.4247 17.8751 45.2747 17.9001C41.8247 17.7751 39.0747 14.9501 39.0747 11.4501C39.0747 7.87507 41.9497 5.00006 45.5247 5.00006C49.0997 5.00006 51.9747 7.90007 51.9747 11.4501C51.9497 14.9501 49.1997 17.7751 45.7497 17.9001Z" stroke="white" stroke-width="1.5" stroke-linecap="round" stroke-linejoin="round"></path><path d="M43.1751 36.1002C46.6001 36.6752 50.3751 36.0752 53.0251 34.3002C56.5501 31.9502 56.5501 28.1002 53.0251 25.7502C50.3501 23.9752 46.5251 23.3751 43.1001 23.9751" stroke="white" stroke-width="1.5" stroke-linecap="round" stroke-linejoin="round"></path><path d="M15.6762 17.9001C15.8262 17.8751 16.0012 17.8751 16.1512 17.9001C19.6012 17.7751 22.3512 14.9501 22.3512 11.4501C22.3512 7.87513 19.4762 5.00012 15.9012 5.00012C12.3262 5.00012 9.45117 7.90013 9.45117 11.4501C9.47617 14.9501 12.2262 17.7751 15.6762 17.9001Z" stroke="white" stroke-width="1.5" stroke-linecap="round" stroke-linejoin="round"></path><path d="M18.2506 36.1002C14.8256 36.6752 11.0506 36.0752 8.40059 34.3002C4.87559 31.9502 4.87559 28.1002 8.40059 25.7502C11.0756 23.9752 14.9006 23.3751 18.3256 23.9751" stroke="white" stroke-width="1.5" stroke-linecap="round" stroke-linejoin="round"></path><path d="M31.05 39.675C30.85 39.65 30.625 39.65 30.4 39.675C25.8 39.525 22.125 35.75 22.125 31.1C22.15 26.35 25.975 22.5 30.75 22.5C35.5 22.5 39.35 26.35 39.35 31.1C39.325 35.75 35.675 39.525 31.05 39.675Z" fill="#FF6314"></path><path d="M22.9245 44.8498C19.1495 47.3748 19.1495 51.5248 22.9245 54.0248C27.2245 56.8998 34.2745 56.8998 38.5745 54.0248C42.3495 51.4998 42.3495 47.3498 38.5745 44.8498C34.2995 41.9748 27.2495 41.9748 22.9245 44.8498Z" fill="#FF6314"></path></svg>