<svg width="32" height="32" viewBox="0 0 32 32" fill="none" xmlns="http://www.w3.org/2000/svg">
<rect width="32" height="32" fill="#09261D"/>
<path fill-rule="evenodd" clip-rule="evenodd" d="M26.0628 13.3023L24.3444 22.1871V22.1823C23.9076 24.4383 21.93 26.0703 19.6308 26.0703H12.3636H12.3588C10.0548 26.0703 8.08196 24.4383 7.64516 22.1775L5.92484 13.2879L5.92004 13.2831C5.84324 12.9039 6.00164 12.5199 6.31844 12.3087L15.4384 6.06871V6.06391C15.7648 5.83831 16.192 5.83831 16.5184 6.06391L25.6384 12.3039L25.6336 12.2991C25.9456 12.5103 26.104 12.8943 26.032 13.2735L26.0628 13.3023ZM19.3572 15.4191L15.9972 13.1199L12.6372 15.4191L13.266 18.6735C13.3956 19.3503 13.986 19.8399 14.6772 19.8351H17.3076H17.3028C17.9892 19.8303 18.5844 19.3455 18.714 18.6687L19.3428 15.4143L19.3572 15.4191Z" fill="#FF6314"/>
</svg>
